<svg viewBox="0 0 194 283" fill="none" xmlns="http://www.w3.org/2000/svg">
<path d="M193 169.5C200.547 77.3142 163.5 2.00002 97.0001 0.500021C30.5001 -0.999979 -3.58762 78.004 1.00003 169.5L47 203.5V249.5L73.5 266.75V225L86.5 234V272.5L97 282.5L109.5 272.5V234L123 225V262L146.5 244.5V203.5L193 169.5ZM81.4002 195.029L95.8827 166.209C96.7377 166.071 98.5 166 98.5 166C98.5 166 100.262 166.071 101.117 166.209L115.6 195.029C114.718 197.447 113.449 199.637 111.882 201.5H85.1179C83.5506 199.637 82.2822 197.447 81.4002 195.029ZM112.383 148.552C107.77 127.948 145.969 114.976 166.201 113C173.394 118.776 177.944 127.302 177.944 136.813C177.944 154.21 162.721 168.313 143.944 168.313C129.644 168.313 117.407 160.135 112.383 148.552ZM29.7425 112.687C49.975 114.663 88.1736 127.635 83.5607 148.239C78.5369 159.822 66.2993 168 52 168C33.2223 168 18 153.897 18 136.5C18 126.989 22.5496 118.463 29.7425 112.687Z" fill="url(#paint0_linear_35_8)"/>
<defs>
<linearGradient id="paint0_linear_35_8" x1="97.2789" y1="0.479004" x2="97.2789" y2="282.5" gradientUnits="userSpaceOnUse">
<stop stop-color="#3F2481"/>
<stop offset="1" stop-color="#AB1C4D"/>
</linearGradient>
</defs>
</svg>
